<?xml version="1.0" encoding="UTF-8"?><svg xmlns="http://www.w3.org/2000/svg" viewBox="0 0 588.31 721.02"><defs><style>.e{fill:#c8202f;}</style></defs><g id="a"/><g id="b"/><g id="c"><g><path class="e" d="M544.65,362.67c-.82,.88-1.78,1.62-2.76,2.31-8.61,6.04-17.97,10.39-28.06,13.47-11.32,3.46-22.88,5.6-34.56,6.46-14.35,1.06-28.78,1.47-43.11-.67-2.32-.35-4.68-.42-6.93-.61-.66,1.94,.72,2.32,1.43,2.93,10.69,9.27,21.43,18.48,32.18,27.7,13.47,11.58,26.95,23.12,40.42,34.68,3.38,2.92,3.45,3.29,1.27,7.26-4.95,9.04-12.6,15.28-21.43,20.18-7.07,3.91-14.57,6.69-22.35,8.85-20.71,5.74-41.84,7.04-63.13,5.84-11.49-.64-22.97-1.83-34.37-3.38-8.29-1.12-16.45-3.16-24.64-4.92-10.79-2.29-21.32-5.53-31.78-9.07-2.48-.83-4.97-1.72-7.39-2.73-2.26-.95-4.04-.63-5.87,1.11-5.8,5.51-10.36,11.96-14.41,18.77-7.68,12.92-13.64,26.66-18.76,40.77-6.12,16.91-11.01,34.18-14.8,51.77-3.96,18.45-6.81,37.03-7.52,55.9-.4,10.79-.32,21.6,1.86,32.27,.87,4.23,2.05,8.35,4.09,12.22,.71,1.36,2.05,2.97-.43,4.7-1.59-1.12-3.37-2.28-5-3.59-10.12-8.14-17.2-18.63-22.8-30.19-6.88-14.25-10.89-29.37-13.37-44.97-2.82-17.62-3.49-35.33-2.42-53.1,.98-16.19,3.33-32.22,7.12-48,2-8.38,4.28-16.74,7.12-24.88,6.83-19.51,15.44-38.2,27.64-55.05,1.54-2.13,1.75-3.77,.38-6.12-9.04-15.53-14.49-32.29-16.96-50.08-1.17-8.38-1.43-16.75-.79-25.14,.48-6.22,1.7-12.36,4.01-18.21,.26-.64,1.07-1.07,1.62-1.6,.53,.55,1.31,1.03,1.52,1.68,1.3,3.86,2.4,7.79,3.67,11.66,6.24,18.92,16.32,35.7,28.83,51.06,19.86,24.38,44.25,43.08,72.51,56.69,13.76,6.62,28.15,11.56,43.14,14.49,12.73,2.5,25.6,4.12,38.62,3.03,14.93-1.25,29.4-4.31,42.77-11.45,1.04-.55,2.05-1.17,3.3-1.91-.38-.85-.46-1.41-.79-1.7-84.73-74.93-169.47-149.87-254.23-224.77-.5-.45-1.19-.67-2.48-1.38,.61,3.37,.9,6.16,1.65,8.8,2.93,10.42,6.78,20.46,12.31,29.8,3.01,5.08,6.41,9.84,10.6,14.04,3.01,3,2.97,4.15-.4,6.46-33.7,23.17-61.48,52.28-85.63,85.07-16.4,22.27-30.44,45.95-42.24,70.96-6.03,12.79-11.46,25.86-15.86,39.31-3.03,9.33-5.51,18.84-8.05,28.33-3.91,14.64-6.11,29.58-6.86,44.7-.61,12.01-.24,24,1.75,35.9,.4,2.36,.93,4.7,1.47,7.04,.27,1.11,.61,2.4-.71,2.71-.79,.18-2.18-.45-2.65-1.15-2.45-3.69-5.07-7.33-6.91-11.32-4.83-10.45-7.2-21.59-7.49-33.09-.24-9.59-.37-19.21,.22-28.78,.51-8.22,1.68-16.48,3.32-24.56,2.39-11.74,5.11-23.42,8.35-34.95,2.63-9.43,5.95-18.71,9.46-27.86,4.02-10.5,8.45-20.87,12.99-31.17,7.33-16.58,16.05-32.43,25.54-47.86,13.76-22.33,29.18-43.41,47.53-62.2,6.61-6.77,13.82-12.95,20.84-19.29,3.03-2.73,3.14-2.71,.85-6.12-6.09-9.03-10.58-18.84-13.11-29.4-1.23-5.16-1.97-10.37-2.15-15.58-.14-4.81,.18-9.64,1.03-14.43,.27-1.65,.61-3.29,1.03-4.92,2.23-8.95,6.38-16.98,12.23-24.21,3.49-4.31,8.18-4.67,12.54-2.61,3.61,1.72,6.8,3.94,9.65,6.77,8.46,8.34,16.95,16.66,25.43,24.98,4.89,4.83,9.78,9.64,14.69,14.43,16.08,15.81,32.16,31.58,48.24,47.37,1.07,1.04,2.24,1.97,3.38,2.97,.21-.16,.43-.3,.66-.46-.22-.85-.35-1.75-.69-2.57-5.43-12.75-8.72-26.08-11.16-39.71-.45-2.53-.85-5.07-1.19-7.6-.66-4.81-1.12-9.62-1.46-14.43-.43-5.88-.66-11.8-.8-17.7-.22-9.44,.72-18.93,1.15-28.39,1.91-4.52-.19-7.39-3.38-10.57-8.21-8.14-13.77-17.99-17.23-29.08-4.68-14.93-4.97-29.92-1.68-45.11,3.17-14.75,9.36-28.12,18-40.42,.91-1.3,1.72-3.29,3.78-2.73,2.21,.61,1.46,2.76,1.6,4.31,.4,4.18,.58,8.38,1.01,12.55,.22,2.15-.3,4.02-1.33,5.85-8.24,14.54-11.17,30.24-10.04,46.77,.61,8.96,2.85,17.51,7.31,25.36,.98,1.72,2.23,3.29,3.64,5.35,.58-1.11,.99-1.56,1.04-2.05,.67-8.64,2.2-17.15,4.41-25.49,2.16-8.08,4.59-16.14,7.5-24,5.58-15.07,12.52-29.55,20.92-43.29,8.8-14.36,18.57-27.96,31.47-39.04,.88-.75,1.83-1.46,3.27-2.63-.18,1.49-.24,2.37-.37,3.24-1.06,6.62-2.05,13.26-3.22,19.86-.26,1.44-.72,3.16-1.7,4.14-8.77,8.77-15.04,19.22-20.49,30.22-5.96,12.04-10.97,24.48-14.7,37.4-2.29,7.94-4.75,15.84-6.67,23.87-1.59,6.62-2.65,13.39-3.67,20.12-.93,6.04-1.51,12.14-2.21,18.2-.06,.58-.02,1.17-.02,1.81,1.73,.5,2.24-.74,2.92-1.65,7.53-10.12,16.8-18.39,27.37-25.22,9.72-6.28,20.04-11.25,31.37-13.93,1.36-.32,2.79-.91,4.38,.75-.67,1.17-1.25,2.58-2.16,3.72-2.81,3.48-5.27,7.13-6.83,11.33-.8,2.21-2.47,3.37-4.47,4.36-18.42,9.17-33.06,22.44-43.27,40.35-2.1,3.7-3.66,7.82-4.79,11.94-.71,2.55-.4,5.48-.13,8.21,.4,3.86,.88,7.71,1.41,11.56,.27,2.08,.58,4.17,.9,6.25,.4,2.74,.88,5.47,1.41,8.18,2.26,11.64,5.6,22.99,9.88,34.1,6.72,17.46,15.71,33.64,27.32,48.3,17.6,22.25,39.13,39.34,65.71,49.76,7.94,3.13,16.06,5.43,24.42,7.2,11.61,2.44,23.31,3.22,35.06,2.5,13.31-.82,26.39-3.22,38.91-8.05,4.36-1.67,8.58-2.15,13.27-.95,4.95,1.27,10.18,1.47,15.28,2.13,.59,.08,1.25-.06,1.8,.11,.63,.19,1.47,.53,1.68,1.03,.19,.46-.19,1.38-.59,1.81Z"/><path class="e" d="M114.13,343.29c-.43,1.89-1.76,3.06-3.61,3.67-1.92,.64-3.64-.02-5-1.25-4.33-3.93-8.91-7.68-12.75-12.07-8.66-9.89-15.01-21.31-19.8-33.49-3.58-9.11-6.14-18.52-7.98-28.2-1.31-6.88-1.2-13.82-2.2-20.7-.45-3.03-.08-6.19-.08-9.78-1.04-.51-2.21-1.11-3.38-1.7-6.88-3.46-11.43-8.45-13.29-15.05-.66-2.32-.99-4.86-.96-7.58,.02-2.45,.32-4.73,.91-6.85,1.81-6.83,6.44-11.91,13.48-15.33,4.28-2.07,8.88-2.28,13.66-1.8,8.75,.88,14.52,5.76,18.44,13.1,.71,1.33,1.27,2.66,1.7,4.02,1.57,4.89,1.43,9.89-.03,14.43-2.48,7.81-8.85,14.27-17.07,16.43-3.16,.83-3.43,1.14-3.48,4.41-.18,10.6,1.36,20.97,3.61,31.31,1.99,9.15,5.05,17.92,9.01,26.37,6.27,13.37,14.32,25.43,26.21,34.55,1.78,1.36,3.17,3.05,2.61,5.5Z"/><path class="e" d="M545.01,629.57c-.93-.37-1.46-.42-1.75-.72-5.07-5.45-11.58-8.74-18.08-12.01-9.39-4.73-19.19-8.56-29.24-11.56-8.21-2.44-16.63-4.3-25.06-5.85-6.69-1.22-13.5-1.83-20.3-2.26-8.13-.51-16.29-.85-24.42-.72-7.54,.11-15.1,.59-22.57,1.54-8.29,1.04-16.59,2.39-24.71,4.33-10.65,2.55-21.18,5.58-31.5,9.38-11.69,4.28-22.99,9.35-33.88,15.26-10.29,5.6-20.15,11.99-29.19,19.49-6.44,5.35-12.65,11.01-18.82,16.69-2.28,2.1-4.18,4.6-6.27,6.91-.37,.4-.82,.72-1.23,1.07-.22-.13-.45-.24-.67-.35,.29-.93,.42-1.94,.88-2.76,3.77-6.52,7.36-13.18,11.45-19.51,6.56-10.13,14.99-18.69,23.86-26.77,8.14-7.42,16.96-13.96,26.44-19.7,8.1-4.92,16.46-9.23,25.09-13.07,5.68-2.5,11.56-4.57,17.47-6.41,6.83-2.12,13.74-4.14,20.76-5.5,8.3-1.62,16.64-3.4,25.22-3.37,5.74,.03,11.48-.63,17.22-.58,6.35,.05,12.7,.35,19.01,.93,4.15,.38,8.26,1.38,12.34,2.23,4.68,.99,9.3,2.16,13.96,3.19,7.62,1.7,14.8,4.67,21.93,7.71,9.03,3.86,17.49,8.83,25.46,14.56,7.71,5.55,14.75,11.85,20.89,19.13,1.7,2.02,3.41,4.02,5,6.11,.42,.56,.4,1.44,.71,2.61Z"/><path class="e" d="M552.7,585.87c-.13,.08-.27,.14-.4,.21-.03-.18-.1-.35-.1-.53,0-.06,.14-.11,.24-.18,.08,.16,.18,.34,.26,.5Z"/></g><g><path class="e" d="M458.4,210.29h-140.7c.22,1.67,.46,3.35,.72,5.05,.46,3.13,1.03,6.25,1.65,9.38h138.47c-1.27-4.76-1.25-9.7-.14-14.43Zm122.69,0h-58.85c.75,3.43,.96,7.1,.45,10.93-.16,1.2-.37,2.37-.63,3.49h51.82v481.87H14.43V224.72h23.37c-.51-2.42-.75-4.99-.74-7.66,.02-2.36,.24-4.62,.67-6.77H7.21c-3.98,0-7.21,3.22-7.21,7.21v496.3c0,3.99,3.24,7.21,7.21,7.21H581.09c3.99,0,7.21-3.22,7.21-7.21V217.51c0-3.99-3.22-7.21-7.21-7.21Zm-416.37,0h-63.15c1.11,4.73,1.11,9.67-.03,14.43h62.28c-.14-4.86,.16-9.68,.9-14.43Z"/><path class="e" d="M514.74,220.17c-.21,1.6-.53,3.13-.96,4.55-2.39,8.34-8.18,13.68-17.01,16.42-1.56,.48-2.31,1.17-2.77,2.81-3.01,10.6-7.18,20.78-11.88,30.75-6.3,13.39-14.62,25.52-23.47,37.32-7.92,10.6-16.43,20.63-26.5,29.26-2.69,2.31-5.85,4.14-8.93,5.95-2.26,1.33-4.97,.48-6.36-1.57-1.2-1.8-.88-4.55,.79-6.27,.5-.51,1.04-1.03,1.65-1.36,8.34-4.68,14.52-11.74,20.65-18.77,11.29-12.95,21.42-26.77,29.56-41.92,3.8-7.02,6.89-14.44,10.15-21.76,1.56-3.48,2.82-7.1,4.14-10.68,.35-.98,.43-2.05,.66-3.17-1.6-.71-3.03-1.28-4.42-1.96-6.62-3.17-10.73-8.18-13.07-15.04-.19-.51-.35-1.04-.51-1.57-1.25-4.23-1.03-8.71,.3-12.86,2.39-7.52,8.38-14.01,15.74-16.27,3.25-.99,6.75-1.73,10.26-.95,2.55,.56,5.21,.85,7.62,1.78,5.96,2.31,11.41,8.14,13.58,15.44,.93,3.08,1.27,6.43,.8,9.88Z"/></g><circle class="e" cx="269.57" cy="217.51" r="12.26"/></g><g id="d"/></svg>