<?xml version="1.0" encoding="UTF-8"?><svg id="Layer_1" xmlns="http://www.w3.org/2000/svg" viewBox="0 0 1280 720"><defs><style>.cls-1{fill:#c85050;}.cls-2{fill:#c2423d;}.cls-3{fill:#fffffe;}.cls-4{fill:#f5f2ef;}</style></defs><path class="cls-3" d="m0,458C0,425.67,0,393.33,0,361c14.05-4.3,28.29-8.08,42.1-13.05,13.7-4.93,24.76-13.67,31.36-27.07,6.73-13.65,17.3-23.23,31.28-28.66,10.43-4.05,21.53-6.39,31.94-10.49,24.47-9.63,44.24-25.1,52.99-50.7,4.93-14.42.79-30.85-16.09-38.35-9.83-4.37-20.21-5.15-30.58-5.56-20.59-.82-40.99,1.74-61.23,5.14-16.04,2.7-31.89,6.56-47.92,9.35C22.65,203.55,11.29,204.57,0,206c0-9.33,0-18.67,0-28,25.07-.66,50.17-.94,75.21-2.15,13.67-.66,27.47-1.89,40.85-4.64,17.82-3.66,35.31-8.95,52.89-13.73,24.71-6.71,49.88-11.04,75.41-11.21,18.15-.12,36.35,1.96,54.46,3.77,23.42,2.34,45.75,9.29,67.46,18.13,19.65,8,39.12,16.08,60.06,20.76,28.99,6.48,58.15,11.46,87.74,12.79,18.01.81,36.18-.47,54.2-1.85,18.22-1.39,35.88-5.87,53.05-12.39,10.38-3.94,20.93-7.69,31.69-10.35,26.66-6.6,53.38-13.09,80.3-18.5,13.88-2.79,28.21-4.02,42.38-4.37,12-.29,24.18.94,36.07,2.85,23.65,3.79,47.21,8.25,70.71,12.9,20.13,3.98,40.07,8.86,60.19,12.87,23.99,4.78,48.03,9.36,72.15,13.45,14.48,2.46,29.11,4.41,43.75,5.49,12.18.9,24.51.78,36.71.03,13.01-.8,25.99-2.51,38.88-4.51,15.68-2.42,31.19-5.88,46.88-8.27,12.24-1.86,24.6-3.26,36.96-3.95,10.01-.56,20.29-.89,30.1.75,10.84,1.81,21.28,5.99,31.9,9.14v26c-7.07-.88-12.88,2.05-18.47,5.92-10.99,7.6-17.63,18.59-22.88,30.33-8.56,19.15-22.48,31.48-42,39.48-21.67,8.88-39.39,23.44-50.02,45.19-4.38,8.97-5.85,18.72-4.3,28.23,1.24,7.65,4.92,14.98,8.07,22.22,6.38,14.69,1.86,29.33-11.91,37.31-1.58.92-3.26,1.68-4.8,2.66-8.53,5.43-11.26,13.96-8.54,23.49,3.83,13.44,14.62,19.14,26.02,23.96,4.06,1.72,9.17,2.7,13.41,1.92,9.38-1.71,18.39-4.66,26.3-10.76,6.12-4.72,12.92-9.12,20.11-11.8,12.83-4.77,25.19-4.19,28.11,16.42.97,6.83,4.31,11.71,10.03,15.08,5.15,3.04,10.27,6.28,15.77,8.52,4.77,1.94,10.06,2.6,15.12,3.82v105c-7.35.84-14.88.94-22.02,2.67-15.71,3.8-31.11,8.95-46.86,12.52-11.01,2.49-22.44,4.7-33.62,4.47-15.88-.33-31.97-1.77-47.5-4.99-28.24-5.86-56.08-13.59-84.18-20.12-19.59-4.56-39.21-9.23-59.06-12.35-16.23-2.55-32.8-3.9-49.23-3.94-21.32-.05-42.73.89-63.95,2.98-17.65,1.74-35.24,5.02-52.55,8.98-22.37,5.12-44.28,12.34-66.69,17.26-18.08,3.97-36.57,6.21-54.96,8.63-17.96,2.36-35.97,4.61-54.04,5.65-10.96.63-22.16-.42-33.08-1.95-17.89-2.51-35.64-6.01-53.44-9.14-16.91-2.98-33.78-6.18-50.72-8.99-18.4-3.06-36.79-6.46-55.32-8.42-13.81-1.47-27.84-1.1-41.78-1.15-10.27-.04-20.55.51-30.83.92-15.23.6-30.49.83-45.66,2.11-17.54,1.48-35.18,2.99-52.46,6.2-26.49,4.93-52.9,10.59-79,17.3-31.54,8.1-62.47,18.71-94.72,23.91-15.76,2.54-31.71,4.13-47.63,5.26-7.3.52-14.75-1.08-22.13-1.77-13.56-1.25-26.88-3.34-38.59-11.04v-26c1.64.23,3.33.26,4.9.71,12.82,3.71,25.3,3.13,37.73-2.01,13.18-5.45,25.26-12.6,36.52-21.31,5.65-4.37,12.14-5.39,19.27-3.72,7.66,1.79,15.42,3.5,23.23,4.21,16.13,1.47,31.47-1.44,45.21-10.58,13.04-8.68,24.74-17.77,26.47-35.57,2.33-23.96-1.19-45.85-16.17-65.34-5.72-7.45-13.07-11.92-22.05-13.33-19.12-3-29.08-16.8-31.01-33.5-1.35-11.66-1.52-23.47-1.95-35.22-.81-21.98-23.01-38.8-44.32-33.51-13.87,3.45-24.14,12.12-31.9,23.44-10.06,14.67-18.83,30.2-28.72,44.99C12.09,443.92,5.77,450.78,0,458Zm846.45-147.5c.18-.01.37-.03.55-.04,0-4.83.23-9.68-.04-14.49-.8-13.77-3.8-26.9-12.75-37.91-11.44-14.07-26.83-22.13-43.62-27.77-3.49-1.17-7.78-1.98-11.17-1.04-7.71,2.13-15.61,4.54-22.5,8.47-14.55,8.32-25.25,20.96-35.12,34.32-6.41,8.69-12.64,17.6-19.86,25.58-8.38,9.27-24.04,14.25-38.86,6.99-8.29-4.06-16.72-4.28-24.22,1.96-7.32,6.09-9.26,13.84-7.15,23.2.9,3.98.24,8.54-.65,12.64-2.01,9.24-8.6,15.58-15.21,21.69-7.33,6.78-15.32,12.9-22.25,20.05-20.23,20.86-23.18,49.55-8.65,71.89,7.85,12.07,22.19,17.66,36.01,14,4.63-1.22,9.1-3.04,13.63-4.62,7.26-2.53,14.5-2.01,20.5,2.52,11.21,8.44,23.09,11.14,36.63,7.18,11.62-3.4,22.74-7.42,30.64-17.38,3.5-4.42,7.14-8.78,11.09-12.79,17.45-17.68,37.92-18.13,57.81-4.25,6.08,4.24,10.92,10.21,16.65,15,4.91,4.09,9.78,9.47,15.56,11.05,20.38,5.6,39.53,1.66,55.94-11.93,17.86-14.78,28.98-33.86,33.88-56.56,3.23-14.96-2.35-27.75-15.31-35.84-8.74-5.45-18.41-8.16-28.28-10.23-11.08-2.32-18.88-8.39-21.29-19.5-1.56-7.2-1.36-14.78-1.94-22.19Zm-432.58,55.04c6.77-5.07,14.36-5.69,21.96-6.73,5.59-.76,11.38-1.86,16.44-4.2,6.56-3.05,6.79-8.63,1.41-13.51-6.85-6.22-14.62-10.52-23.61-13.22-11.89-3.57-23.62-7.16-36.25-6.96-7.98.13-15.06-1.78-17.12-11.17-.22-.99-1.3-2.24-2.25-2.54-4.78-1.49-9.89-4.38-14.42-3.69-10.39,1.58-20.69,4.42-30.69,7.74-13.59,4.51-24.85,12.73-32.94,24.72-5.19,7.69-2.55,16.86,5.85,20.67,4.78,2.17,9.83,3.74,14.76,5.56,7,2.58,13.39,6.29,13.9,14.47.45,7.18-.12,14.55-1.19,21.69-2.34,15.66,1.28,29.14,13.07,40.02,3.81,3.52,8.65,4.97,13.46,3.26,7.78-2.77,13.7-7.93,16.78-15.96,1.23-3.23,2.68-6.43,4.49-9.36,2.58-4.17,6.2-6.94,11.54-6.34,8.97,1.01,17.94,1.94,26.9,3.03,12.53,1.52,25.05,2.11,37.44-.81,8.48-2,11.82-6.31,10.43-14.56-.55-3.27-3.1-6.52-5.47-9.12-6.79-7.44-16.03-10.3-25.49-12.47-7.11-1.63-13.56-4.41-18.99-10.52Zm-167.68,83.76c16.94-.65,29.17-7.09,40.21-15.3,9.01-6.71,9.11-17.6,2.23-26.57-4.8-6.26-11.74-8.19-18.71-10.36-7.54-2.35-14.41-.64-20.66,3.6-5.35,3.63-10.77,7.33-15.42,11.77-3.6,3.44-6.78,7.74-8.9,12.25-4.73,10.03.1,16.64,7.6,20.25,4.96,2.38,10.56,3.42,13.64,4.38Zm807.81-186.83c.02-6.65-2.67-9.66-9.77-11.67-1.53-.43-3.78-1.96-3.88-3.15-.34-3.91-2.26-6.48-5.7-7.35-3.73-.94-7.77-.99-10.42,2.71-3.77,5.25-8.59,5.68-14.44,4.17-8.37-2.17-17.24,6.09-15.76,14.29,1.11,6.17,7.73,12.3,14.51,12.46,4.23.1,8.6-.69,12.7-1.82,5.08-1.4,9.43-1.48,14.23,1.49,8.68,5.38,18.51-.76,18.54-11.14Zm-7.32,272.48c-.75-2.32-1.08-4.91-2.33-6.92-3.4-5.46-7.01-10.8-10.87-15.95-4.64-6.18-12.45-8.01-18.63-4.45-6.59,3.8-9.63,10.37-6.84,18.65,3.82,11.34,13.85,16.98,22.15,24.21.52.46,1.55.39,2.35.47,7.93.84,13.66-5.82,14.18-16.02Zm18.46-60.7c.04-5.45-3.46-9.52-8.07-9.39-3.61.1-7.04,5.24-7.07,10.58-.02,4.8,3,8.58,6.93,8.69,4.75.14,8.17-3.97,8.21-9.88Zm-53.27,6.32c-1.71-4.45-1.9-8.25-6.55-8.59-3.31-.24-4.44,1.52-4.48,4.51-.05,4.25,2.76,8.26,6.01,7.65,1.87-.35,3.43-2.38,5.02-3.58Z"/><path class="cls-4" d="m1280,195c-10.62-3.15-21.06-7.32-31.9-9.14-9.81-1.64-20.09-1.31-30.1-.75-12.36.69-24.72,2.09-36.96,3.95-15.68,2.39-31.2,5.85-46.88,8.27-12.89,1.99-25.87,3.7-38.88,4.51-12.2.75-24.53.87-36.71-.03-14.64-1.08-29.27-3.03-43.75-5.49-24.12-4.09-48.16-8.67-72.15-13.45-20.12-4.01-40.07-8.89-60.19-12.87-23.5-4.65-47.06-9.11-70.71-12.9-11.89-1.9-24.07-3.14-36.07-2.85-14.17.35-28.51,1.58-42.38,4.37-26.92,5.41-53.64,11.9-80.3,18.5-10.76,2.66-21.31,6.41-31.69,10.35-17.16,6.52-34.82,10.99-53.05,12.39-18.02,1.38-36.19,2.66-54.2,1.85-29.59-1.32-58.75-6.31-87.74-12.79-20.94-4.68-40.41-12.75-60.06-20.76-21.71-8.84-44.03-15.8-67.46-18.13-18.11-1.81-36.31-3.89-54.46-3.77-25.53.17-50.7,4.5-75.41,11.21-17.58,4.77-35.07,10.06-52.89,13.73-13.38,2.75-27.18,3.98-40.85,4.64C50.17,177.06,25.07,177.34,0,178V25h1280v170Z"/><path class="cls-2" d="m0,643c11.72,7.7,25.04,9.79,38.59,11.04,7.38.68,14.83,2.28,22.13,1.77,15.93-1.13,31.88-2.72,47.63-5.26,32.24-5.2,63.17-15.81,94.72-23.91,26.1-6.7,52.51-12.37,79-17.3,17.28-3.22,34.92-4.72,52.46-6.2,15.17-1.28,30.43-1.51,45.66-2.11,10.27-.41,20.55-.95,30.83-.92,13.93.05,27.96-.32,41.78,1.15,18.53,1.97,36.91,5.37,55.32,8.42,16.94,2.81,33.81,6.01,50.72,8.99,17.8,3.13,35.55,6.63,53.44,9.14,10.92,1.53,22.12,2.58,33.08,1.95,18.06-1.04,36.08-3.29,54.04-5.65,18.39-2.41,36.88-4.65,54.96-8.63,22.41-4.93,44.31-12.14,66.69-17.26,17.31-3.96,34.9-7.24,52.55-8.98,21.22-2.1,42.62-3.03,63.95-2.98,16.43.04,33,1.39,49.23,3.94,19.84,3.12,39.47,7.79,59.06,12.35,28.1,6.54,55.94,14.27,84.18,20.12,15.53,3.22,31.62,4.65,47.5,4.99,11.19.23,22.61-1.97,33.62-4.47,15.76-3.57,31.15-8.72,46.86-12.52,7.14-1.73,14.67-1.83,22.02-2.67v70c-1.82-.09-3.65-.26-5.47-.26-33.49-.02-66.98-.01-100.46-.01-386.03,0-772.06,0-1158.1,0-5.32,0-10.64.17-15.97.27,0-11.67,0-23.33,0-35Z"/><path class="cls-2" d="m1280,685v35H0c0-11.67,0-23.33,0-35,.33-.24.66-.47.99-.71,2-.06,3.99-.17,5.99-.17,422.35,0,844.7-.01,1267.06,0,1.66,0,3.32.11,4.99.17.33.23.66.47.99.7Z"/><path class="cls-1" d="m0,458c5.77-7.22,12.09-14.08,17.2-21.74,9.88-14.79,18.66-30.33,28.72-44.99,7.76-11.31,18.03-19.99,31.9-23.44,21.3-5.3,43.51,11.53,44.32,33.51.43,11.75.6,23.56,1.95,35.22,1.93,16.7,11.89,30.51,31.01,33.5,8.98,1.41,16.33,5.88,22.05,13.33,14.98,19.49,18.51,41.38,16.17,65.34-1.73,17.8-13.43,26.89-26.47,35.57-13.74,9.14-29.07,12.05-45.21,10.58-7.81-.71-15.57-2.42-23.23-4.21-7.13-1.67-13.62-.65-19.27,3.72-11.26,8.72-23.34,15.86-36.52,21.31-12.42,5.14-24.91,5.72-37.73,2.01-1.57-.45-3.26-.48-4.9-.71C0,564,0,511,0,458Z"/><path class="cls-3" d="m1280,25H0V0h1280v25Z"/><path class="cls-1" d="m1280,503c-5.06-1.22-10.35-1.88-15.12-3.82-5.5-2.24-10.62-5.49-15.77-8.52-5.72-3.37-9.06-8.24-10.03-15.08-2.93-20.61-15.29-21.19-28.11-16.42-7.19,2.68-13.99,7.07-20.11,11.8-7.91,6.1-16.92,9.05-26.3,10.76-4.25.78-9.35-.2-13.41-1.92-11.39-4.82-22.18-10.52-26.02-23.96-2.72-9.53.02-18.07,8.54-23.49,1.54-.98,3.22-1.74,4.8-2.66,13.78-7.98,18.29-22.63,11.91-37.31-3.14-7.24-6.82-14.57-8.07-22.22-1.55-9.51-.08-19.26,4.3-28.23,10.63-21.75,28.35-36.31,50.02-45.19,19.52-8,33.43-20.33,42-39.48,5.25-11.74,11.9-22.73,22.88-30.33,5.59-3.87,11.4-6.8,18.47-5.92v282Z"/><path class="cls-1" d="m0,206c11.29-1.43,22.65-2.45,33.85-4.4,16.03-2.79,31.88-6.65,47.92-9.35,20.24-3.4,40.64-5.96,61.23-5.14,10.38.41,20.75,1.19,30.58,5.56,16.88,7.5,21.02,23.94,16.09,38.35-8.75,25.6-28.51,41.07-52.99,50.7-10.41,4.1-21.51,6.44-31.94,10.49-13.98,5.43-24.55,15-31.28,28.66-6.61,13.41-17.66,22.15-31.36,27.07C28.29,352.92,14.05,356.7,0,361c0-51.67,0-103.33,0-155Z"/><path class="cls-3" d="m1279.01,684.3c-1.66-.06-3.32-.17-4.99-.17-422.35,0-844.7,0-1267.06,0-2,0-3.99.11-5.99.17-.33-.1-.66-.2-.99-.29,0-2,0-4,0-6,5.32-.09,10.64-.27,15.97-.27,386.03-.01,772.06,0,1158.1,0,33.49,0,66.98,0,100.46.01,1.82,0,3.65.17,5.47.26v6c-.33.1-.66.2-.99.3Z"/><path class="cls-1" d="m0,684c.33.1.66.2.99.29-.33.24-.66.47-.99.71,0-.33,0-.67,0-1Z"/><path class="cls-1" d="m1279.01,684.3c.33-.1.66-.2.99-.3v1c-.33-.23-.66-.47-.99-.7Z"/><path class="cls-1" d="m846.45,310.5c.59,7.41.39,14.99,1.94,22.19,2.41,11.12,10.21,17.18,21.29,19.5,9.87,2.07,19.54,4.78,28.28,10.23,12.96,8.08,18.54,20.88,15.31,35.84-4.9,22.7-16.02,41.78-33.88,56.56-16.42,13.59-35.57,17.54-55.94,11.93-5.77-1.59-10.65-6.96-15.56-11.05-5.74-4.78-10.58-10.75-16.65-15-19.89-13.88-40.36-13.43-57.81,4.25-3.96,4.01-7.59,8.37-11.09,12.79-7.9,9.96-19.02,13.98-30.64,17.38-13.53,3.96-25.42,1.26-36.63-7.18-6-4.52-13.24-5.04-20.5-2.52-4.53,1.58-9,3.39-13.63,4.62-13.82,3.65-28.16-1.93-36.01-14-14.54-22.35-11.58-51.03,8.65-71.89,6.93-7.15,14.92-13.27,22.25-20.05,6.61-6.11,13.2-12.46,15.21-21.69.89-4.09,1.55-8.66.65-12.64-2.11-9.36-.17-17.11,7.15-23.2,7.49-6.24,15.93-6.02,24.22-1.96,14.82,7.26,30.48,2.28,38.86-6.99,7.22-7.99,13.44-16.9,19.86-25.58,9.87-13.36,20.56-26,35.12-34.32,6.89-3.94,14.79-6.34,22.5-8.47,3.39-.94,7.68-.13,11.17,1.04,16.79,5.64,32.18,13.7,43.62,27.77,8.96,11.02,11.96,24.14,12.75,37.91.28,4.82.04,9.66.04,14.49-.18.01-.37.03-.55.04Z"/><path class="cls-1" d="m413.86,365.54c5.43,6.1,11.88,8.88,18.99,10.52,9.46,2.17,18.7,5.03,25.49,12.47,2.37,2.6,4.92,5.85,5.47,9.12,1.39,8.24-1.95,12.56-10.43,14.56-12.39,2.92-24.91,2.33-37.44.81-8.96-1.08-17.93-2.02-26.9-3.03-5.34-.6-8.96,2.16-11.54,6.34-1.81,2.93-3.25,6.14-4.49,9.36-3.07,8.03-8.99,13.19-16.78,15.96-4.8,1.71-9.64.26-13.46-3.26-11.79-10.88-15.4-24.36-13.07-40.02,1.07-7.14,1.64-14.5,1.19-21.69-.51-8.18-6.89-11.89-13.9-14.47-4.94-1.82-9.98-3.39-14.76-5.56-8.39-3.8-11.04-12.98-5.85-20.67,8.09-11.99,19.35-20.21,32.94-24.72,10-3.32,20.3-6.15,30.69-7.74,4.53-.69,9.64,2.19,14.42,3.69.94.3,2.03,1.55,2.25,2.54,2.06,9.4,9.14,11.31,17.12,11.17,12.62-.21,24.35,3.39,36.25,6.96,8.99,2.7,16.76,7,23.61,13.22,5.38,4.88,5.15,10.47-1.41,13.51-5.05,2.35-10.85,3.44-16.44,4.2-7.61,1.03-15.2,1.65-21.96,6.73Z"/><path class="cls-1" d="m246.19,449.3c-3.08-.95-8.69-1.99-13.64-4.38-7.5-3.61-12.33-10.22-7.6-20.25,2.12-4.5,5.29-8.8,8.9-12.25,4.65-4.44,10.07-8.14,15.42-11.77,6.26-4.24,13.12-5.95,20.66-3.6,6.96,2.17,13.9,4.1,18.71,10.36,6.88,8.97,6.79,19.86-2.23,26.57-11.04,8.22-23.27,14.66-40.21,15.3Z"/><path class="cls-1" d="m1054,262.48c-.02,10.38-9.86,16.52-18.54,11.14-4.79-2.97-9.15-2.89-14.23-1.49-4.1,1.13-8.48,1.92-12.7,1.82-6.77-.16-13.4-6.29-14.51-12.46-1.47-8.2,7.4-16.46,15.76-14.29,5.85,1.52,10.67,1.09,14.44-4.17,2.65-3.7,6.69-3.66,10.42-2.71,3.44.87,5.36,3.44,5.7,7.35.1,1.18,2.35,2.71,3.88,3.15,7.11,2,9.79,5.01,9.77,11.67Z"/><path class="cls-1" d="m1046.68,534.96c-.52,10.2-6.26,16.87-14.18,16.02-.8-.09-1.82-.02-2.35-.47-8.29-7.23-18.33-12.87-22.15-24.21-2.79-8.28.26-14.85,6.84-18.65,6.18-3.56,14-1.73,18.63,4.45,3.86,5.14,7.47,10.49,10.87,15.95,1.25,2.01,1.58,4.59,2.33,6.92Z"/><path class="cls-1" d="m1065.14,474.26c-.04,5.91-3.46,10.02-8.21,9.88-3.94-.12-6.95-3.9-6.93-8.69.02-5.34,3.45-10.47,7.07-10.58,4.62-.13,8.11,3.94,8.07,9.39Z"/><path class="cls-1" d="m1011.87,480.58c-1.59,1.19-3.15,3.23-5.02,3.58-3.25.6-6.06-3.4-6.01-7.65.03-2.99,1.17-4.75,4.48-4.51,4.66.34,4.85,4.14,6.55,8.59Z"/></svg>